:FULLY-SPECIFIED
:FORCE-ALL-JOINTS-BE-3DOF
:DEGREES
2344
root 0.755645 14.0419 -18.1521 933.027 -38.3697 156.535
lfemur -4.2781 -6.28155 0.481482
ltibia 33.6796 0 0
lfoot -11.2668 26.7791 0
ltoes -45.3737 0 0
rfemur -67.8792 -12.4138 12.7024
rtibia 78.8772 0 0
rfoot -10.6646 -17.8614 0
rtoes 5.48941 0 0
lowerback 19.9574 3.48034 -3.29123
upperback 0.381736 3.57256 -0.640791
thorax -10.9882 1.77421 0.149745
lowerneck -5.20699 -2.59759 -4.96076
upperneck 2.50515 -3.04552 0.298878
head 1.92168 -1.57225 0.936232
lclavicle -1.19726e-13 -7.97751e-16 0
lhumerus -34.4876 -18.3629 83.7631
lradius 101.303 0 0
lwrist 48.7373 0 0
lhand -24.4221 403.59 0
lfingers 7.12502 0 0
lthumb 2.07054 -665.377 0
rclavicle -1.19726e-13 -7.97751e-16 0
rhumerus 46.9784 13.1093 -49.7068
rradius 48.2264 0 0
rwrist 6.38526 0 0
rhand -6.57846 -397.854 0
rfingers 7.12502 0 0
rthumb 19.2759 293.079 0
2345
root 0.754924 14.065 -18.2938 937.146 -37.4001 153.422
lfemur -5.47917 -6.06619 0.112661
ltibia 35.0701 0 0
lfoot -10.9679 26.6185 0
ltoes -44.6102 0 0
rfemur -67.3669 -11.9235 12.9279
rtibia 78.7547 0 0
rfoot -10.9137 -18.3605 0
rtoes 5.1776 0 0
lowerback 19.981 3.43846 -3.08174
upperback 0.35819 3.56375 -0.596303
thorax -11.0203 1.76136 0.0817675
lowerneck -5.25669 -2.1896 -4.63482
upperneck 2.65099 -2.48449 -0.0742303
head 1.97516 -1.29936 0.796346
lclavicle -1.17971e-13 -1.3563e-15 0
lhumerus -31.7009 -18.9856 82.535
lradius 101.637 0 0
lwrist 46.5633 0 0
lhand -24.8495 403.624 0
lfingers 7.12502 0 0
lthumb 1.65787 -667.289 0
rclavicle -1.17971e-13 -1.3563e-15 0
rhumerus 45.6883 14.402 -50.2492
rradius 49.4696 0 0
rwrist 5.77474 0 0
rhand -6.30294 -397.881 0
rfingers 7.12502 0 0
rthumb 19.5407 293.08 0
2346
root 0.752318 14.0891 -18.4425 941.501 -36.3669 150.16
lfemur -6.72813 -5.83099 -0.294647
ltibia 36.5376 0 0
lfoot -10.6612 26.4605 0
ltoes -43.8002 0 0
rfemur -66.8315 -11.4124 13.1637
rtibia 78.6215 0 0
rfoot -11.1776 -18.8551 0
rtoes 4.84549 0 0
lowerback 19.994 3.39304 -2.87157
upperback 0.329898 3.55202 -0.550493
thorax -11.0512 1.74716 0.0158071
lowerneck -5.3038 -1.76528 -4.2951
upperneck 2.80867 -1.90166 -0.461265
head 2.03335 -1.01602 0.650826
lclavicle -1.16034e-13 -1.88675e-15 0
lhumerus -28.7789 -19.6468 81.2513
lradius 101.992 0 0
lwrist 44.27 0 0
lhand -25.2913 403.668 0
lfingers 7.12502 0 0
lthumb 1.2314 -668.887 0
rclavicle -1.16034e-13 -1.88675e-15 0
rhumerus 44.3165 15.7483 -50.8348
rradius 50.7493 0 0
rwrist 5.1617 0 0
rhand -6.02428 -397.914 0
rfingers 7.12502 0 0
rthumb 19.8085 293.075 0
2347
root 0.747941 14.1139 -18.5977 946.072 -35.2727 146.757
lfemur -8.02117 -5.57705 -0.737934
ltibia 38.0763 0 0
lfoot -10.3479 26.3049 0
ltoes -42.9475 0 0
rfemur -66.2747 -10.8826 13.4089
rtibia 78.4787 0 0
rfoot -11.4551 -19.3445 0
rtoes 4.49456 0 0
lowerback 19.9967 3.34434 -2.66104
upperback 0.297148 3.53759 -0.50348
thorax -11.0812 1.73173 -0.0481461
lowerneck -5.34823 -1.32641 -3.94307
upperneck 2.97721 -1.29946 -0.86057
head 2.09589 -0.7234 0.500315
lclavicle -1.13928e-13 -2.38979e-15 0
lhumerus -25.7335 -20.3437 79.9173
lradius 102.368 0 0
lwrist 41.8672 0 0
lhand -25.7459 403.72 0
lfingers 7.12502 0 0
lthumb 0.792486 -670.185 0
rclavicle -1.13928e-13 -2.38979e-15 0
rhumerus 42.87 17.1435 -51.4598
rradius 52.0628 0 0
rwrist 4.54608 0 0
rhand -5.74316 -397.954 0
rfingers 7.12502 0 0
rthumb 20.0786 293.064 0
2348
root 0.741906 14.1395 -18.7588 950.839 -34.1203 143.22
lfemur -9.35451 -5.30546 -1.21469
ltibia 39.6804 0 0
lfoot -10.0289 26.1515 0
ltoes -42.0559 0 0
rfemur -65.698 -10.3362 13.6628
rtibia 78.3274 0 0
rfoot -11.7447 -19.8281 0
rtoes 4.12626 0 0
lowerback 19.9897 3.29265 -2.45048
upperback 0.26023 3.52067 -0.455381
thorax -11.1101 1.71518 -0.110102
lowerneck -5.38989 -0.874768 -3.58023
upperneck 3.15561 -0.680299 -1.27049
head 2.16241 -0.422678 0.345457
lclavicle -1.11664e-13 -2.86606e-15 0
lhumerus -22.5764 -21.0732 78.5385
lradius 102.762 0 0
lwrist 39.3647 0 0
lhand -26.2121 403.781 0
lfingers 7.12502 0 0
lthumb 0.342491 -671.198 0
rclavicle -1.11664e-13 -2.86606e-15 0
rhumerus 41.3561 18.5832 -52.121
rradius 53.4072 0 0
rwrist 3.92782 0 0
rhand -5.46027 -398 0
rfingers 7.12502 0 0
rthumb 20.3504 293.048 0
2349
root 0.734326 14.1658 -18.9255 955.782 -32.9127 139.557
lfemur -10.7243 -5.0173 -1.7224
ltibia 41.3438 0 0
lfoot -9.70527 26.0001 0
ltoes -41.1291 0 0
rfemur -65.103 -9.77543 13.9246
rtibia 78.1687 0 0
rfoot -12.045 -20.3053 0
rtoes 3.74207 0 0
lowerback 19.9735 3.23825 -2.2402
upperback 0.219433 3.50148 -0.406316
thorax -11.138 1.69762 -0.170072
lowerneck -5.42868 -0.41214 -3.20806
upperneck 3.34284 -0.0466048 -1.68937
head 2.23254 -0.115023 0.186893
lclavicle -1.09253e-13 -3.31624e-15 0
lhumerus -19.3196 -21.8325 77.1205
lradius 103.173 0 0
lwrist 36.7722 0 0
lhand -26.6882 403.849 0
lfingers 7.12502 0 0
lthumb -0.117235 -671.941 0
rclavicle -1.09253e-13 -3.31624e-15 0
rhumerus 39.7817 20.063 -52.8146
rradius 54.7799 0 0
rwrist 3.30685 0 0
rhand -5.17632 -398.051 0
rfingers 7.12502 0 0
rthumb 20.6231 293.027 0
